<?xml version="1.0" encoding="UTF-8" standalone="no"?>
<svg
   xmlns:dc="http://purl.org/dc/elements/1.1/"
   xmlns:cc="http://creativecommons.org/ns#"
   xmlns:rdf="http://www.w3.org/1999/02/22-rdf-syntax-ns#"
   xmlns:svg="http://www.w3.org/2000/svg"
   xmlns="http://www.w3.org/2000/svg"
   viewBox="0 0 615.95905 374.79529"
   height="374.79529"
   width="615.95905"
   id="svg2"
   version="1.1">
  <metadata
     id="metadata8">
    <rdf:RDF>
      <cc:Work
         rdf:about="">
        <dc:format>image/svg+xml</dc:format>
        <dc:type
           rdf:resource="http://purl.org/dc/dcmitype/StillImage" />
        <dc:title></dc:title>
      </cc:Work>
    </rdf:RDF>
  </metadata>
  <defs
     id="defs6" />
  <path
     d="M 139.35919,6.2978744e-6 C 137.32054,0.0040063 134.64612,1.4441463 129.20617,5.0242463 121.4452,10.131866 118.05102,13.393546 114.22068,19.426476 c -1.43471,2.25978 -3.01028,4.19574 -3.50077,4.30229 -0.49048,0.10655 -1.45413,-0.63925 -2.14164,-1.6571 -6.73594,-9.97168 -8.00797,-11.31804 -17.253751,-18.2545797 -2.93692,-2.2034 -5.87366,-3.8981 -6.52564,-3.76561 -1.36894,0.27817 -5.29254,11.1426497 -6.24801,17.3017897 -0.3532,2.2767 -0.52645,6.38781 -0.38593,9.13685 l 0.25475,4.99924 -5.14212,-2.64519 c -5.6546,-2.90878 -10.43566,-4.37896 -14.84514,-4.56548 -2.8141,-0.11904 -12.95808,-4.81909 -15.82139,-7.32977 -2.59959,-2.27943 -3.46182,-1.13771 -2.85858,3.78766 1.52465,12.44866 6.01166,23.84702 13.41888,34.09189 0.64612,0.89362 -0.0309,1.31989 -4.15059,2.61284 -4.21656,1.32336 -15.91991,8.18511 -17.14391,10.05142 -0.48262,0.7359 3.68016,7.01812 6.84444,10.32933 3.29239,3.44525 10.91773,6.27388 17.8517,6.62104 5.55041,0.27787 9.24094,2.02114 9.8571,4.65665 0.25295,1.08198 -0.6432,3.243 -2.43148,5.86529 -5.81901,8.533014 -25.46391,30.802124 -39.09128,44.312414 -7.85668,7.78914 -10.36361,11.51037 -13.7789,20.45866 -6.5076597,17.05041 -11.64699969,51.85359 -11.08655969,75.07246 0.62514,25.90145 6.29620999,44.40119 18.32609969,59.78653 2.41132,3.08392 6.59711,8.599 9.30336,12.25551 12.58553,17.00457 29.86537,34.81533 41.80802,43.09346 17.54587,12.16212 46.702461,21.30294 77.650221,24.34338 10.96406,1.07715 24.84007,0.44541 42.63173,-1.93941 13.19033,-1.76806 28.65744,-5.8799 38.6779,-10.28227 19.3157,-8.48614 39.30958,-20.97148 53.68779,-33.52581 4.10976,-3.58844 8.0723,-7.26736 11.84164,-10.93216 -1.65978,-0.54954 -2.72644,-3.01241 -2.89825,-8.33844 -9.25194,8.88493 -19.51103,18.12854 -28.25948,25.25646 -18.24702,14.86705 -28.43772,21.02615 -43.79102,26.46365 -7.59043,2.68823 -30.97435,8.12731 -40.01415,9.30741 -24.9198,3.25312 -40.77104,1.64319 -67.24549,-6.83132 C 86.664619,355.4324 81.377199,352.7658 68.649529,341.72474 49.427329,325.04977 21.490959,292.11513 14.986149,278.46225 8.6912993,265.24998 6.7627493,241.34386 9.7311493,213.30006 11.875809,193.0386 16.191309,170.64062 19.542499,162.37837 c 6.11278,-15.07086 24.60816,-31.54412 42.53868,-37.88692 6.27466,-2.21959 11.36987,-5.28303 13.39754,-8.05613 0.63156,-0.86377 1.55621,-3.04764 2.0547,-4.85368 2.01428,-7.29757 -3.97299,-21.815064 -10.95538,-26.563634 l -3.36806,-2.29082 1.92504,-0.93663 c 2.20933,-1.07527 14.57497,-3.13968 16.73358,-2.79368 0.79338,0.12715 3.43473,1.93314 5.86972,4.0141 2.43499,2.08096 5.23322,4.18073 6.21902,4.66546 1.19128,0.5858 2.52195,2.55121 3.96756,5.86088 2.01011,4.60204 2.135281,5.37833 1.65201,10.239624 -0.53961,5.42772 -0.20607,6.64136 1.307261,4.74782 1.41281,-1.76778 1.17527,-7.42513 -0.63915,-15.185934 -1.496791,-6.4022 -1.562431,-7.7581 -0.562861,-11.69089 1.413471,-5.56129 7.021331,-14.6029 9.373551,-15.11389 0.30395,-0.066 0.62984,-0.10749 0.97624,-0.12644 5.19613,-0.28435 14.77033,4.53537 16.79461,8.70309 1.06714,2.19718 4.0508,3.76469 5.45175,2.86426 0.64442,-0.41417 1.28489,0.7662 2.36894,4.36699 2.62746,8.72746 7.37909,12.61581 18.13542,14.84187 10.37953,2.14808 22.07386,3.812244 22.99989,3.273044 1.31923,-0.768164 -2.95326,-2.004004 -15.8824,-4.594904 -6.59574,-1.32174 -13.13626,-3.05897 -14.53549,-3.8597 -4.62268,-2.64547 -7.35054,-6.73279 -8.86863,-13.29358 -1.76746,-7.63825 -1.25921,-9.38316 2.98975,-10.26757 2.90083,-0.60381 3.55615,-0.39825 6.66141,2.07911 6.7138,5.35626 15.37747,9.77309 19.35726,9.86908 5.55028,0.13388 15.93956,-2.39032 27.0483,-6.57251 17.27021,-6.50192 17.80993,-6.62775 23.11429,-5.41243 2.73403,0.6264 6.1852,2.18381 8.31189,3.7509 6.82681,5.03046 15.114,10.70704 27.79878,19.04271 28.75604,18.896754 45.63039,32.855834 51.17699,42.337704 2.34294,4.00524 5.51924,10.35121 8.47052,16.77835 0.90039,-1.01349 1.86107,-1.90447 2.87079,-2.57462 1.22126,-1.77757 2.63019,-3.22133 4.15823,-4.33169 -9.55319,-17.21986 -15.84466,-25.21423 -26.80728,-34.35068 -20.46812,-17.058464 -61.06511,-42.460614 -71.48914,-44.731474 -4.58698,-0.99925 -5.70101,-0.90673 -20.2481,1.68211 -22.95787,4.08563 -43.93321,5.13839 -48.37942,2.42904 -2.39561,-1.45982 -3.28315,-3.47149 -1.68555,-3.81853 2.558,-0.55569 9.39362,-7.04224 12.52959,-11.88939 3.70116,-5.72075 4.52753,-7.6141 3.81653,-8.74868 -0.24991,-0.39876 -3.05626,-0.93899 -6.2358,-1.20127 -11.19431,-0.92344 -21.59336,-5.51217 -22.61703,-9.97938 -0.2545,-1.1107 1.13183,-7.5754 3.08129,-14.36547 4.13262,-14.3939297 4.26757,-15.9425297 1.5254,-17.6135197 -0.86364,-0.52627 -1.65888,-0.82204 -2.58555,-0.8204600021256 z M 89.379639,5.6329763 l 3.57858,2.40405 c 3.79724,2.5505797 9.702181,9.2368597 14.399731,16.3034197 1.56462,2.3537 3.25834,4.33722 3.76313,4.40815 0.50483,0.0709 2.39999,-2.05274 4.21161,-4.71988 4.94899,-7.28595 16.32272,-15.6608297 17.0036,-12.52015 0.10984,0.50668 -0.51344,4.89656 -1.38355,9.7544 -0.9195,5.13361 -1.3572,10.56038 -1.04641,12.9598 l 0.53388,4.12879 8.96627,2.8628 c 4.93105,1.57468 11.28336,3.14705 14.116,3.4936 2.83267,0.34651 5.2066,0.87196 5.27634,1.16893 0.0697,0.29695 -1.49438,2.46508 -3.47636,4.81691 -4.93595,5.85692 -9.52286,8.62966 -16.94104,10.2411 -6.68994,1.45325 -8.33643,2.75162 -10.23998,8.07525 l -1.06167,2.96866 -1.87166,-1.86883 c -2.13632,-2.13198 -6.2721,-4.07013 -11.20707,-5.25215 -1.86581,-0.44686 -4.20746,-1.36639 -5.20465,-2.04379 -2.57542,-1.74959 -3.36428,-1.3381 -6.05582,3.16127 -1.31279,2.19451 -3.493631,6.85257 -4.846171,10.35138 l -2.45894,6.36227 -1.59404,-1.81442 c -2.2867,-2.60135 -6.32982,-4.74699 -10.18354,-5.40507 -2.54241,-0.43412 -5.48289,-0.0826 -12.36485,1.47772 -14.29944,3.24206 -23.98474,2.75294 -29.12588,-1.47038 -1.33181,-1.09403 -3.51617,-3.27548 -4.8538,-4.84631 -2.80093,-3.28935 -2.72854,-3.45367 2.85858,-6.52402 5.88704,-3.23518 11.21366,-4.65154 16.89374,-4.49197 2.82953,0.0795 5.27342,-0.0516 5.43041,-0.29113 0.15711,-0.23952 -1.04173,-1.36514 -2.66486,-2.50256 -3.34548,-2.34435 -8.47249,-10.30518 -11.66774,-18.11637 -2.08564,-5.09863 -4.33151,-15.3428 -3.60603,-16.44898 0.21691,-0.33078 1.77206,0.006 3.45501,0.74988 1.68297,0.74392 5.86612,1.99022 9.29575,2.7687 8.75723,1.9878 23.57377,9.06662 20.41436,9.75294 -0.66945,0.14542 -2.11659,1.40611 -3.21706,2.80251 -1.10044,1.39642 -3.42879,3.37844 -5.1726,4.40375 -3.76943,2.2163 -5.91819,6.08007 -4.26806,7.67383 0.59097,0.5708 2.3407,1.16259 3.88823,1.31598 l 2.81435,0.27937 1.75879,6.54607 c 1.56063,5.80879 1.61861,6.73477 0.52321,8.23405 -1.51291,2.07074 -1.31416,3.17242 0.77794,4.30523 2.69309,1.45827 5.84633,1.16244 7.74444,-0.72783 1.67957,-1.67267 1.67731,-1.77605 -0.25627,-7.74588 -1.07792,-3.32798 -1.81079,-6.08434 -1.6276,-6.12409 0.1832,-0.0397 1.18402,0.6982 2.22402,1.63946 1.20248,1.08835 2.46327,3.53118 3.46266,6.71075 0.96809,3.0801 1.96442,5.03742 2.59468,5.09629 0.75939,0.071 0.68,-1.38735 -0.30965,-5.65944 -0.92368,-3.98726 -1.0272,-5.46747 -0.33711,-4.81544 0.54786,0.51765 1.39509,2.62497 1.88234,4.68164 1.47496,6.22154 5.34132,7.06415 8.5239,1.85854 1.330341,-2.17593 1.286001,-2.76902 -0.99607,-13.08184 -1.31477,-5.94152 -2.46029,-11.61086 -2.54437,-12.59809 -0.20861,-2.44782 -2.51495,-3.19974 -5.07346,-1.65417 -2.62665,1.58676 -2.40072,3.64584 0.61168,5.56975 2.3344,1.49082 2.553,1.9492 3.70061,7.80176 1.15727,5.90188 1.12976,6.24997 -0.52626,6.85485 -2.88182,1.05259 -3.75941,-0.16084 -2.55351,-3.5333 1.77902,-4.97536 -0.90326,-8.85798 -7.22122,-10.45135 l -2.11877,-0.53374 2.31708,-1.35862 c 3.91249,-2.29377 3.82333,-5.57339 -0.20288,-7.43711 -1.75467,-0.81225 -1.86823,-1.14279 -2.2103,-6.4652 -0.45841,-7.13242 1.28791,-14.27568 4.7516,-19.4352997 z m 6.19158,23.3729297 c -0.73749,0.035 -1.64055,0.52413 -2.8647,1.22776 -3.38737,1.94705 -3.11872,3.8523 0.71085,5.04042 l 3.08281,0.95573 2.09742,8.92218 c 1.15322,4.90694 2.484261,9.63334 2.957741,10.50282 0.4735,0.86949 1.21563,1.37203 1.65047,1.11749 0.54611,-0.31972 -0.17869,-4.61049 -2.34453,-13.87438 -2.403871,-10.28201 -3.240341,-13.62763 -4.983461,-13.87878 -0.099,-0.0143 -0.20125,-0.0182 -0.3066,-0.0132 z m 10.342181,0.77782 c -0.89769,0.0313 -1.72415,0.27537 -2.51385,0.73519 -2.80779,1.63492 -3.19435,3.46744 -1.27829,6.05497 0.88683,1.19757 2.74725,5.95911 4.13535,10.58075 2.57698,8.57994 3.49575,10.37671 4.71347,9.22654 0.45978,-0.43429 -0.10802,-3.25963 -1.70539,-8.48842 -2.53488,-8.2976 -2.62745,-10.08657 -0.4683,-9.02657 0.94163,0.46227 1.72339,2.53598 2.98061,7.9135 1.60017,6.84437 1.84861,7.37602 4.09874,8.7472 1.92947,1.17575 2.83906,1.27008 4.67382,0.48229 2.93297,-1.25932 5.33702,-3.66271 5.02006,-5.01836 -0.13664,-0.58408 -1.25604,-2.21049 -2.48791,-3.61416 -2.05442,-2.34088 -2.19669,-2.78339 -1.7298,-5.34183 0.27998,-1.53409 0.8335,-3.09611 1.23099,-3.47153 2.38202,-2.24985 -2.23016,-6.12268 -6.25106,-5.24922 -3.86637,0.8399 -4.14446,2.09954 -1.94793,8.82808 1.72405,5.28121 1.7777,5.87114 0.56592,6.13437 -1.22175,0.2654 -1.502,-0.51189 -3.16214,-8.75456 l -1.82133,-9.04423 -2.35215,-0.52196 c -0.59832,-0.13274 -1.16221,-0.19081 -1.70081,-0.17205 z m -10.793701,1.09984 c 1.02469,0.0301 1.87689,0.62109 2.11877,1.65563 0.13484,0.57674 -0.50535,1.14704 -1.4903,1.32627 -3.81969,0.69507 -5.28056,-0.67548 -2.5642,-2.40551 0.64468,-0.4106 1.32091,-0.59443 1.93573,-0.57639 z m 10.354391,0.30584 c 0.57223,-0.006 1.18017,0.19724 1.72673,0.65726 0.89603,0.7541 1.14215,1.52563 0.83287,2.604 -0.80131,2.79379 -4.52918,2.25457 -4.77601,-0.69107 -0.12847,-1.53287 0.95747,-2.55785 2.21641,-2.57019 z m 11.40537,2.9819 c 0.21451,-0.0128 0.44524,-0.01 0.69101,0.0103 2.24561,0.18591 3.33375,2.14795 2.00435,3.61563 -0.61091,0.67446 -1.32063,1.27232 -1.57573,1.32774 -0.93668,0.20347 -2.71299,-1.30115 -3.00349,-2.54373 -0.33522,-1.43375 0.38223,-2.31964 1.88386,-2.40993 z m -35.650001,3.47447 c 0.4023,-0.004 0.81888,0.0178 1.24471,0.0647 l 2.69995,0.29701 -1.4186,1.73062 c -2.19279,2.67628 -6.52966,3.08545 -7.09462,0.66902 -0.36095,-1.54388 1.75249,-2.7383 4.56856,-2.76135 z m 10.12404,2.84957 c 0.84972,-0.008 1.7311,0.77442 1.3881,1.73356 -0.17886,0.50032 -0.6265,0.97544 -0.99607,1.05573 -1.17682,0.25564 -2.09356,-1.19212 -1.41252,-2.23056 0.25443,-0.38794 0.63426,-0.55498 1.02049,-0.55873 z m 26.608981,0.95427 c 0.049,0.009 0.0993,0.0267 0.14949,0.0574 0.28826,0.17564 0.55065,1.41135 0.58423,2.74517 0.07,2.78328 -1.08851,3.52884 -1.64742,1.06014 -0.39432,-1.74181 0.17918,-3.9913 0.9137,-3.86265 z m 13.96194,1.01897 c -0.15015,-0.006 -0.2962,-0.002 -0.43931,0.0103 -2.51881,0.20852 -3.90838,3.03133 -2.86317,7.34595 0.4854,2.00355 0.81695,4.37877 0.73677,5.2786 -0.0802,0.89983 0.14529,1.92241 0.50185,2.27319 1.02485,1.00816 1.93295,0.50011 2.78537,-1.56152 0.43382,-1.04922 1.92483,-2.85085 3.31316,-4.00234 3.25007,-2.69563 3.09797,-5.28608 -0.46219,-7.89293 -1.30298,-0.95407 -2.5214,-1.41458 -3.57248,-1.45124 z m -0.31728,2.3717 c 1.34913,-0.0786 3.39422,1.63977 3.52214,3.19216 0.14361,1.74291 -1.38171,2.72101 -3.22621,2.07027 -1.36056,-0.48 -1.998,-4.43632 -0.82372,-5.11246 0.15676,-0.0902 0.33506,-0.13876 0.52779,-0.14997 z m -60.118861,0.0383 c 0.33409,0.006 0.7062,0.0559 1.14405,0.1441 1.17256,0.23601 2.0881,0.85967 2.03335,1.38508 -0.15065,1.44587 -4.4433,3.05569 -6.19309,2.32319 -1.36205,-0.57019 -1.33748,-0.78571 0.26542,-2.38199 1.08604,-1.08156 1.74804,-1.48493 2.75027,-1.47038 z m 8.55747,1.37333 c 1.36471,0.0768 2.53921,0.90821 2.30944,2.42758 -0.24412,1.61436 -2.85137,2.65511 -4.686,1.87029 -1.26455,-0.5409 -1.48802,-0.99842 -1.06931,-2.19378 0.52638,-1.50267 2.08116,-2.18091 3.44587,-2.10409 z m 41.362611,2.35699 c 0.88421,0.003 1.58958,0.19285 1.88233,0.61609 0.40265,0.5821 0.35993,1.62576 -0.0946,2.31876 -0.45446,0.69302 -1.8114,1.68259 -3.0157,2.19967 -1.68146,0.72195 -2.62403,0.64627 -4.05908,-0.3279 -1.84369,-1.25157 -1.85252,-1.28692 -0.64219,-2.62313 1.17378,-1.29586 3.98394,-2.19081 5.92922,-2.18349 z m -34.769841,0.45582 c 0.98071,0.18146 1.93899,3.19321 1.61539,5.33301 -0.23808,1.57424 -3.6521,2.40268 -4.55025,1.10425 -0.7963,-1.15122 1.32089,-6.12792 2.73806,-6.43579 0.0652,-0.0142 0.1314,-0.0135 0.1968,-0.002 z m -10.6015,3.3142 c 0.83701,0.0257 1.74021,1.85287 3.04011,6.00498 1.58115,5.05051 1.11286,7.30682 -1.02355,4.92571 -1.40665,-1.5678 -3.42481,-9.8791 -2.59011,-10.66749 0.19008,-0.17954 0.38038,-0.26914 0.57355,-0.2632 z m 19.53878,8.14436 c 0.0814,-0.005 0.16126,0.006 0.23642,0.0309 1.35309,0.44953 1.41694,2.26092 0.1495,4.19347 -0.64917,0.98993 -1.52279,1.87488 -1.94182,1.96588 -0.41906,0.091 -0.91553,-0.49489 -1.1044,-1.30274 -0.38042,-1.62714 1.44009,-4.82367 2.6603,-4.8875 z M 217.68363,119.25557 c -0.44487,-0.10797 1.30412,2.19113 4.10026,5.36389 9.03047,10.2468 13.60963,16.81483 22.73143,34.61535 0.26187,-0.0129 0.52383,-0.0245 0.78558,-0.05 0.40551,-0.01 0.87464,-0.006 1.32403,-0.006 -5.4657,-10.41228 -10.50279,-19.23538 -13.21906,-22.80832 -4.39156,-5.77659 -13.68043,-15.93201 -15.60478,-17.06065 -0.0495,-0.0291 -0.0878,-0.0472 -0.11746,-0.0544 z m 30.63907,46.3768 c -0.14475,0.0859 -0.3017,0.17139 -0.44083,0.25584 0.0754,0.15089 0.15214,0.30546 0.22882,0.45875 0.0694,-0.23862 0.13836,-0.47745 0.21201,-0.71459 z M 73.660449,255.08205 c -0.6274,0.0626 0.28677,2.37445 4.93771,14.00378 10.92549,27.31833 29.063431,53.07962 46.320121,65.78708 6.4485,4.74852 29.32454,15.9024 41.35804,20.1646 5.21037,1.84558 8.27243,1.84727 4.27109,0.003 -20.6445,-9.51733 -26.53418,-12.4853 -34.61731,-17.44297 -5.27205,-3.23353 -12.26547,-8.07462 -15.54072,-10.75865 -12.38895,-10.15258 -24.601431,-27.63562 -33.699011,-48.24269 -6.46723,-14.64898 -10.59071,-22.4085 -12.37553,-23.28472 -0.28186,-0.13838 -0.5096,-0.24381 -0.65439,-0.22938 z"
     style="fill:#000000;stroke-width:0.7667852"
     id="path12" />
  <text
     id="text198"
     y="276.86237"
     x="334.50073"
     style="font-style:normal;font-variant:normal;font-weight:normal;font-stretch:normal;font-size:40px;line-height:1.25;font-family:'Indie Flower';-inkscape-font-specification:'Indie Flower';letter-spacing:0px;word-spacing:0px;fill:#000000;fill-opacity:1;stroke:none"
     xml:space="preserve"><tspan
       style="font-size:53.33333206px"
       y="276.86237"
       x="334.50073"
       id="tspan196">photographer</tspan></text>
  <text
     id="text220"
     y="233.93936"
     x="141.36862"
     style="font-style:normal;font-variant:normal;font-weight:normal;font-stretch:normal;font-size:40px;line-height:1.25;font-family:'Indie Flower';-inkscape-font-specification:'Indie Flower';letter-spacing:0px;word-spacing:0px;fill:#000000;fill-opacity:1;stroke:none"
     xml:space="preserve"><tspan
       style="font-size:120px"
       y="233.93936"
       x="141.36862"
       id="tspan218">Tsylibina</tspan></text>
</svg>
