<svg xmlns="http://www.w3.org/2000/svg" viewBox="0 0 126.39787 88.46582" height="88.466" width="126.398"><path d="M35.413 86.676c-11.345-3.922-24.36-15.45-29.08-25.76-2.12-4.63-2.476-6.557-1.983-10.72.663-5.605 4.452-14.119 8.337-18.736 1.392-1.654 2.258-3.66 1.94-4.49-.881-2.296-5.35-3.564-10.23-2.902-2.645.359-4.397.2-4.397-.397C0 22.187 5.91 17.5 7.78 17.5c1.13 0 .468-1.186-2.168-3.885-4.17-4.272-3.696-5.573 1.489-4.086 4.857 1.393 4.766 1.47 5.097-4.279L12.5 0l2.372 3.815 2.371 3.814 1.864-3.064c1.025-1.686 2.595-3.065 3.49-3.065 1.322 0 1.5.666.957 3.562-.727 3.876.952 10.438 2.67 10.438.589 0 3.007-1.587 5.374-3.527 13.157-10.781 26.285-9.67 40.617 3.437 7.002 6.404 15.513 22.09 11.986 22.09-.44 0-1.39-1.687-2.111-3.75-3.304-9.443-12.67-19.931-21.7-24.303-9.675-4.684-17.969-3.42-27.105 4.13-2.612 2.157-5.693 3.923-6.848 3.923-2.408 0-4.4-3.172-5.474-8.719-.584-3.012-.756-3.233-.848-1.09-.165 3.865-1.625 4.239-4.173 1.069L13.724 6l.642 4.2.642 4.201-3.472-1.45C6.578 10.879 6.26 11.118 9.49 14.49c3.21 3.35 3.262 3.165-1.411 5.03l-3.421 1.364 5.36 1.208C14.702 23.146 18 25.404 18 27.554c0 .369-1.395 2.42-3.1 4.558C6.116 43.122 4.33 52.937 9.421 62.22 16.93 75.91 33.165 86.5 46.644 86.5c2.355 0 6.61-.917 9.454-2.038 7.178-2.83 8.605-1.774 1.902 1.408-6.642 3.152-14.943 3.449-22.587.806zm-8.69-14.987C25.226 70.78 24 69.396 24 68.613c0-1.196.28-1.181 1.75.092.963.833 2.595 1.966 3.628 2.517 1.034.55 1.472 1.253.974 1.56-.498.308-2.13-.184-3.629-1.093zm-9.03-7.976c-.89-.982-2.585-3.976-3.77-6.653-2.426-5.485-2.197-10.821.729-16.956 1.697-3.56 4.256-5.242 2.82-1.854-2.146 5.062-3.388 8.962-3.423 10.75-.07 3.692 2.007 9.413 4.49 12.363C19.891 62.973 21 64.561 21 64.894c0 1.19-1.717.576-3.307-1.18z" fill="#95bbbd"/><text style="line-height:1.25;-inkscape-font-specification:'Indie Flower'" x="90.62" y="62.391" transform="matrix(1.06454 0 0 .93937 -64.112 -3.32)" font-weight="400" font-size="32.114" font-family="Indie Flower" letter-spacing="0" word-spacing="0" fill="#fff" stroke-width=".803"><tspan x="90.62" y="62.391" font-size="21.333">Tsylibina</tspan></text><text style="line-height:1.25;-inkscape-font-specification:'Indie Flower'" x="134.218" y="69.322" font-weight="400" font-size="40" font-family="Indie Flower" letter-spacing="0" word-spacing="0" fill="#fff" transform="translate(-64.112 -3.32)"><tspan x="134.218" y="69.322" font-size="10.667">photographer</tspan></text></svg>